<mxfile host="app.diagrams.net" modified="2023-05-26T15:29:40.068Z" agent="Mozilla/5.0 (Windows NT 10.0; Win64; x64) AppleWebKit/537.36 (KHTML, like Gecko) Chrome/113.0.0.0 Safari/537.36" version="21.3.4" etag="3vgzKW3EZRWIt4Gxrh7v" type="github">
  <diagram name="第 1 页" id="9NqPtzcR1rDcoIRm08iA">
    <mxGraphModel>
      <root>
        <mxCell id="0" />
        <mxCell id="1" parent="0" />
      </root>
    </mxGraphModel>
  </diagram>
</mxfile>
